<svg xmlns="http://www.w3.org/2000/svg" viewBox="0 0 1400 800" width="1400" height="800">
  <rect width="1400" height="800" fill="#1b82d1"/>
  <g fill="none" stroke="rgba(255,255,255,0.18)" stroke-width="1.5" stroke-linecap="round">
    <path d="M-50 420 C80 360,200 480,350 410 S560 320,720 390 S920 460,1100 400 S1300 340,1450 390"/>
    <path d="M-50 480 C60 410,190 540,360 470 S580 370,750 450 S950 520,1130 460 S1320 390,1450 450"/>
    <path d="M-50 540 C70 470,210 590,380 520 S600 420,770 500 S970 570,1150 510 S1340 440,1450 510"/>
    <path d="M-50 360 C90 300,220 420,380 350 S590 260,750 330 S950 400,1130 340 S1320 280,1450 330"/>
    <path d="M-50 300 C100 240,240 360,400 290 S610 200,780 270 S980 340,1160 280 S1340 220,1450 270"/>
    <path d="M-50 240 C110 180,250 300,420 230 S630 140,800 210 S1000 280,1180 220 S1350 160,1450 210"/>
    <path d="M-50 180 C120 120,260 240,440 170 S650 80,820 150 S1020 220,1200 160 S1360 100,1450 150"/>
    <path d="M-50 600 C80 530,220 650,400 580 S620 480,790 560 S990 630,1170 570 S1350 500,1450 560"/>
    <path d="M-50 660 C90 590,230 710,420 640 S640 540,810 620 S1010 690,1190 630 S1360 560,1450 620"/>
    <path d="M200 -20 C180 80,320 200,260 340 S140 500,220 620 S380 720,300 820"/>
    <path d="M400 -20 C380 90,500 220,440 370 S300 540,380 660 S520 760,440 860"/>
    <path d="M650 -20 C620 100,760 240,690 400 S540 580,620 700 S770 790,680 880"/>
    <path d="M900 -20 C870 110,1000 260,930 430 S770 620,860 740 S1010 820,920 900"/>
    <path d="M1150 -20 C1120 120,1240 280,1170 460 S1010 660,1100 780 S1250 850,1160 940"/>
    <path d="M100 700 C200 620,380 560,500 480 S620 360,780 300 S960 240,1100 160 S1280 80,1400 40"/>
    <path d="M-50 100 C150 180,300 80,480 140 S700 220,880 160 S1060 80,1240 120 S1380 180,1450 140"/>
    <path d="M300 800 C350 700,500 620,580 520 S640 400,800 360 S1000 320,1120 240 S1300 160,1400 120"/>
  </g>
</svg>
